<?xml version="1.0" encoding="UTF-8" standalone="no"?>
<svg
   width="1095.3698"
   zoomAndPan="magnify"
   viewBox="0 0 821.52731 479.01562"
   height="638.6875"
   preserveAspectRatio="xMidYMid"
   version="1.0"
   id="svg31"
   xmlns="http://www.w3.org/2000/svg"
   xmlns:svg="http://www.w3.org/2000/svg"
>
  <defs
     id="defs3"
>
    <clipPath
       id="ebbde88c55"
>
      <path
         d="m 175,141.33203 h 45 V 194 h -45 z m 0,0"
         clip-rule="nonzero"
         id="path1"
/>
    </clipPath>
    <clipPath
       id="d62941ec65"
>
      <path
         d="m 605,141.33203 h 44 V 194 h -44 z m 0,0"
         clip-rule="nonzero"
         id="path2"
/>
    </clipPath>
    <clipPath
       id="9cd1e50267"
>
      <path
         d="M 323,204 H 584 V 620.37891 H 323 Z m 0,0"
         clip-rule="nonzero"
         id="path3"
/>
    </clipPath>
  </defs>
  <path
     fill="#173a79"
     d="m 4.585938,38.449219 c 0.847656,1.97656 2.117187,6.34766 2.539062,7.61719 1.480469,4.375 6.984375,4.375 8.113281,4.375 6.277344,0 8.957032,-4.72657 8.957032,-7.90235 C 24.195313,33.722659 0,27.796879 0,15.378909 0,6.207029 6.773438,0.777339 16.082031,0.777339 c 4.304688,0 8.113282,0.77344 13.402344,2.46875 l -0.28125,10.51172 h -3.667968 c -0.632813,-3.24609 -1.90625,-6.49218 -3.101563,-7.6914 -1.269531,-1.26953 -3.738281,-2.32813 -6.28125,-2.32813 -5.21875,0 -8.109375,2.89453 -8.109375,6.35156 0,3.10157 1.691406,4.30079 10.085938,9.875 9.945312,6.63282 14.53125,9.59375 14.53125,17.77735 0,7.48047 -6.136719,15.66406 -18.621094,15.66406 -5.714844,0 -10.792969,-1.625 -13.261719,-2.47266 L 0.355469,38.449219 Z m 0,0"
     fill-opacity="1"
     fill-rule="nonzero"
     id="path4"
     style="fill:#ffffff;fill-opacity:1"
/>
  <path
     fill="#173a79"
     d="m 63.187499,50.031249 c 10.79297,0 14.46094,-8.53906 14.46094,-21.23437 0,-12.98047 -2.89063,-25.04688 -14.10938,-25.04688 -10.789059,0 -14.457028,8.53516 -14.457028,21.23438 0,12.98046 2.890626,25.04296 14.105468,25.04296 z m 0.63672,-49.24609 c 16.36328,0 26.09766,12.27734 26.09766,25.89453 0,15.44922 -11.56641,26.73828 -27.01563,26.73828 -16.36328,0 -26.097655,-12.27734 -26.097655,-25.89453 0,-15.44922 11.566406,-26.73828 27.015625,-26.73828 z m 0,0"
     fill-opacity="1"
     fill-rule="nonzero"
     id="path5"
     style="fill:#ffffff;fill-opacity:1"
/>
  <path
     fill="#173a79"
     d="m 98.664059,38.449219 c 0.84375,1.97656 2.117191,6.34766 2.539071,7.61719 1.48046,4.375 6.98437,4.375 8.10937,4.375 6.28125,0 8.96094,-4.72657 8.96094,-7.90235 0,-8.8164 -24.195311,-14.74218 -24.195311,-27.16015 0,-9.17188 6.773431,-14.60157 16.082031,-14.60157 4.30468,0 8.11328,0.77344 13.40234,2.46875 l -0.28125,10.51172 h -3.66797 c -0.63672,-3.24609 -1.90625,-6.49218 -3.10547,-7.6914 -1.26953,-1.26953 -3.73828,-2.32813 -6.27734,-2.32813 -5.21875,0 -8.10938,2.89453 -8.10938,6.35156 0,3.10157 1.69141,4.30079 10.08594,9.875 9.94531,6.63282 14.53125,9.59375 14.53125,17.77735 0,7.48047 -6.13672,15.66406 -18.62109,15.66406 -5.71485,0 -10.792971,-1.625 -13.261721,-2.47266 l -0.42578,-12.48437 z m 0,0"
     fill-opacity="1"
     fill-rule="nonzero"
     id="path6"
     style="fill:#ffffff;fill-opacity:1"
/>
  <g
     clip-path="url(#ebbde88c55)"
     id="g7"
     transform="translate(-44.988281,-141.36328)"
     style="fill:#ffffff;fill-opacity:1"
>
    <path
       fill="#173a79"
       d="m 175.24609,155.47266 c 1.55078,-6.98438 2.25782,-10.9375 2.67969,-14.10938 h 1.83594 c 0.63281,1.26953 1.62109,1.69141 3.94922,1.76172 3.8789,0.14453 8.88672,0.28516 13.89453,0.28516 5.42969,0 9.94531,-0.14063 14.95312,-0.28516 2.39844,-0.14063 3.31641,-0.42188 4.375,-1.76172 h 2.25782 c -0.63672,3.66797 -1.27344,8.18359 -1.97657,14.10938 h -2.53906 c -1.48047,-7.90235 -1.62109,-8.67969 -7.47656,-8.67969 -2.25781,0 -3.8086,0.35547 -5.21875,0.63672 v 31.11328 c 0,9.73437 0.21094,10.4375 0.70312,11.0039 0.42188,0.4961 1.19922,0.84766 6.41797,1.26954 l 0.004,2.96484 c -5.00781,-0.14453 -9.03125,-0.28516 -11.92188,-0.28516 -2.89453,0 -6.91406,0.14063 -11.92187,0.28516 v -2.96484 c 5.21875,-0.42188 5.99609,-0.77344 6.41797,-1.26954 0.49609,-0.5664 0.70703,-1.26953 0.70703,-11.0039 v -31.1836 c -1.12891,-0.42187 -2.89453,-0.5625 -4.16406,-0.5625 -5.9961,0 -6.76954,1.6211 -10.29688,8.67579 z m 0,0"
       fill-opacity="1"
       fill-rule="nonzero"
       id="path7"
       style="fill:#ffffff;fill-opacity:1"
/>
  </g>
  <path
     fill="#173a79"
     d="m 184.30469,24.898439 c 0,-16.08594 -0.0703,-18.13281 -0.5625,-19.05078 -0.42578,-0.77344 -2.32813,-0.98828 -6.34766,-1.12891 v -2.96094 c 5.92188,0.14063 8.60547,0.28125 12.13281,0.28125 3.52344,0 6.20704,-0.14062 12.12891,-0.28125 v 2.96094 c -4.01953,0.14453 -5.92187,0.35547 -6.34766,1.12891 -0.49218,0.91797 -0.5625,2.96484 -0.5625,19.05078 v 4.375 c 0,16.08203 0.0703,18.1289 0.5625,19.04687 0.42579,0.77344 2.32813,0.98828 6.34766,1.12891 v 2.96094 c -5.92187,-0.14063 -8.60547,-0.28125 -12.12891,-0.28125 -3.52734,0 -6.21093,0.14062 -12.13281,0.28125 v -2.96094 c 4.01953,-0.14063 5.92188,-0.35547 6.34766,-1.12891 0.49219,-0.91797 0.5625,-2.96484 0.5625,-19.04687 z m 0,0"
     fill-opacity="1"
     fill-rule="nonzero"
     id="path8"
     style="fill:#ffffff;fill-opacity:1"
/>
  <path
     fill="#173a79"
     d="m 211.60938,20.105469 c 0,-11.28906 -0.0703,-13.82813 -0.84766,-14.53516 -0.5625,-0.5625 -2.46875,-0.84375 -5.14844,-0.84375 v -2.96484 c 3.87891,0.14062 7.89844,0.28516 11.00391,0.28516 11.92187,0 19.82031,-0.14454 27.71875,-0.28516 0.42578,6.35156 0,2.96484 0.77734,11.35937 h -3.3164 c -1.05469,-3.45703 -1.97266,-5.85546 -2.96094,-6.34765 -1.33985,-0.63672 -4.9375,-1.20313 -11.63672,-1.20313 -3.24609,0 -4.09375,0.0742 -4.51563,0.4961 -0.84765,0.84765 -1.05859,5.28906 -1.05859,9.66406 v 8.96094 c 1.55078,0.0703 3.52734,0.14062 5.57422,0.14062 2.18359,0 6.91016,-0.0703 7.61719,-0.77734 0.63281,-0.63281 0.84375,-4.9375 0.84375,-6.13672 h 2.96484 c -0.14062,2.82031 -0.28125,5.64453 -0.28125,8.39453 0,2.75 0.14063,5.57422 0.28125,8.39453 h -2.96484 c 0,-1.19922 -0.21094,-5.5039 -0.84375,-6.13672 -0.70703,-0.70312 -5.4336,-0.77734 -7.61719,-0.77734 -2.04688,0 -4.02344,0.0742 -5.57422,0.14453 v 13.19141 c 0,7.47656 0.42188,7.47656 2.82031,7.47656 5.21875,0 12.34375,-0.14063 15.16407,-1.05859 1.90625,-0.63282 4.58593,-5.64063 5.57421,-7.96875 h 3.59766 c -1.55078,4.4414 -2.46875,8.67578 -3.17578,12.83984 -3.80859,-0.14453 -13.54297,-0.28516 -28.70703,-0.28516 -3.38672,0 -7.40625,0.14063 -11.28516,0.28516 v -2.96484 c 2.67969,0 4.58594,-0.28125 5.14844,-0.84766 0.77734,-0.77344 0.84766,-3.24609 0.84766,-14.53125 z m 0,0"
     fill-opacity="1"
     fill-rule="nonzero"
     id="path9"
     style="fill:#ffffff;fill-opacity:1"
/>
  <path
     fill="#173a79"
     d="m 252.98828,1.761719 c 2.1875,0.14062 4.30469,0.28516 6.49219,0.28516 2.1875,0 4.30078,-0.14454 6.48828,-0.28516 6.48828,9.38281 20.73828,26.73828 28.84766,36.12109 0.0703,-3.8789 0.14062,-7.90234 0.14062,-11.92187 0,-6.63281 -0.14062,-13.33203 -0.70312,-19.39844 -0.14063,-1.48437 -1.55078,-1.55469 -5.14844,-1.83594 v -2.96484 c 2.46875,0.14062 4.9375,0.28516 7.33594,0.28516 2.46875,0 4.93359,-0.14454 7.33203,-0.28516 v 2.96484 c -4.01953,0.14063 -4.16016,0.77344 -4.58203,10.23047 -0.63672,14.67188 -0.42188,27.65235 -0.98828,38.44922 h -3.52735 c -8.11328,-9.80859 -21.01953,-26.24609 -32.23437,-38.94531 -0.14063,2.82422 -0.14063,6.42187 -0.14063,10.4414 0,6.77344 0.21094,14.81641 0.63281,22.08204 0.14454,2.32812 2.11719,2.46875 4.94141,2.46875 v 2.96484 c -1.83594,-0.14453 -4.30469,-0.28516 -7.26562,-0.28516 -3.03516,0 -5.50391,0.14063 -7.33594,0.28516 v -2.96484 c 2.39844,-0.0703 3.8789,-0.0703 4.08984,-2.46875 0.98828,-11.00391 1.12891,-26.17579 1.12891,-38.94141 0,-3.03516 -0.91797,-3.10547 -5.5,-3.31641 v -2.96484 z m 0,0"
     fill-opacity="1"
     fill-rule="nonzero"
     id="path10"
     style="fill:#ffffff;fill-opacity:1"
/>
  <path
     fill="#173a79"
     d="m 315.00391,24.898439 c 0,-16.08594 -0.0703,-18.13281 -0.56641,-19.05078 -0.42187,-0.77344 -2.32812,-0.98828 -6.34766,-1.12891 v -2.96094 c 5.92579,0.14063 8.60547,0.28125 12.13282,0.28125 3.52734,0 6.20703,-0.14062 12.13281,-0.28125 v 2.96094 c -4.01953,0.14453 -5.92578,0.35547 -6.34766,1.12891 -0.49609,0.91797 -0.5664,2.96484 -0.5664,19.05078 v 4.375 c 0,16.08203 0.0703,18.1289 0.5664,19.04687 0.42188,0.77344 2.32813,0.98828 6.34766,1.12891 v 2.96094 c -5.92578,-0.14063 -8.60547,-0.28125 -12.13281,-0.28125 -3.52735,0 -6.20703,0.14062 -12.13282,0.28125 v -2.96094 c 4.01954,-0.14063 5.92579,-0.35547 6.34766,-1.12891 0.49609,-0.91797 0.56641,-2.96484 0.56641,-19.04687 z m 0,0"
     fill-opacity="1"
     fill-rule="nonzero"
     id="path11"
     style="fill:#ffffff;fill-opacity:1"
/>
  <path
     fill="#4eb231"
     d="m 348.41797,50.292969 c 5.43359,-0.35156 6.70312,-0.42188 7.40625,-1.12891 0.63672,-0.63281 0.70703,-5.07812 0.70703,-12.91015 v -18.33985 c 0,-7.83203 -0.0703,-12.27734 -0.70703,-12.91406 -0.70313,-0.70312 -1.97266,-0.77344 -7.40625,-1.125 v -2.11719 c 2.89453,0.14063 6.49219,0.28125 11.28516,0.28125 4.79687,0 8.39453,-0.14062 11.28906,-0.28125 v 2.11719 c -5.4336,0.35156 -6.70313,0.42188 -7.40625,1.125 -0.63672,0.63672 -0.70703,5.08203 -0.70703,12.91406 v 18.33985 c 0,7.83203 0.0703,12.27734 0.70703,12.91015 0.70312,0.70703 1.97265,0.77735 7.40625,1.12891 v 2.11719 c -2.89453,-0.14063 -6.49219,-0.28125 -11.28906,-0.28125 -4.79297,0 -8.39063,0.14062 -11.28516,0.28125 z m 0,0"
     fill-opacity="1"
     fill-rule="nonzero"
     id="path12"
/>
  <path
     fill="#4eb231"
     d="m 374.3125,50.292969 c 6.06641,-0.35156 6.48828,-0.5625 6.83984,-1.05859 0.4961,-0.70313 0.84766,-1.97657 0.84766,-13.1211 v -18.05859 c 0,-11.14844 -0.35156,-12.41797 -0.84766,-13.125 -0.35156,-0.49219 -0.77343,-0.70313 -6.83984,-1.05469 v -2.11719 c 3.45703,0.14063 8.60547,0.28125 11.21484,0.28125 3.38672,0 7.40625,-0.14062 10.01563,-0.28125 v 1.97266 c -5.99609,0.49609 -6.41797,0.63672 -6.91016,1.26953 -0.35156,0.49609 -0.70703,3.8125 -0.70703,14.25391 0,9.38281 0.28125,19.04687 0.28125,28.0039 0,1.97657 0.63672,2.1875 4.86719,2.1875 15.09375,0 15.66016,-0.49218 17.70703,-5.00781 l 2.46484,-5.35937 c 0,0 1.97657,0.21093 1.97657,0.21093 l -2.75,13.1211 c -6.20703,-0.14063 -11.92188,-0.28125 -17,-0.28125 -5.5,0 -13.1875,0.14062 -21.16016,0.28125 z m 0,0"
     fill-opacity="1"
     fill-rule="nonzero"
     id="path13"
/>
  <path
     fill="#173a79"
     d="m 434.35547,38.449219 c 0.84766,1.97656 2.11719,6.34766 2.53906,7.61719 1.48047,4.375 6.98438,4.375 8.11328,4.375 6.27735,0 8.95703,-4.72657 8.95703,-7.90235 0,-8.8164 -24.19531,-14.74218 -24.19531,-27.16015 0,-9.17188 6.77344,-14.60157 16.08203,-14.60157 4.30469,0 8.11328,0.77344 13.40235,2.46875 l -0.28125,10.51172 h -3.66797 c -0.63281,-3.24609 -1.90235,-6.49218 -3.10156,-7.6914 -1.26954,-1.26953 -3.73829,-2.32813 -6.28125,-2.32813 -5.21875,0 -8.10938,2.89453 -8.10938,6.35156 0,3.10157 1.69141,4.30079 10.08594,9.875 9.94531,6.63282 14.53125,9.59375 14.53125,17.77735 0,7.48047 -6.13672,15.66406 -18.6211,15.66406 -5.71484,0 -10.79296,-1.625 -13.26171,-2.47266 L 430.125,38.449219 Z m 0,0"
     fill-opacity="1"
     fill-rule="nonzero"
     id="path14"
     style="fill:#ffffff;fill-opacity:1"
/>
  <path
     fill="#173a79"
     d="m 492.96094,50.031249 c 10.78906,0 14.45703,-8.53906 14.45703,-21.23437 0,-12.98047 -2.89063,-25.04688 -14.10547,-25.04688 -10.79297,0 -14.46094,8.53516 -14.46094,21.23438 0,12.98046 2.89063,25.04296 14.10938,25.04296 z m 0.63281,-49.24609 c 16.36328,0 26.09766,12.27734 26.09766,25.89453 0,15.44922 -11.56641,26.73828 -27.01563,26.73828 -16.36328,0 -26.09765,-12.27734 -26.09765,-25.89453 0,-15.44922 11.5664,-26.73828 27.01562,-26.73828 z m 0,0"
     fill-opacity="1"
     fill-rule="nonzero"
     id="path15"
     style="fill:#ffffff;fill-opacity:1"
/>
  <path
     fill="#173a79"
     d="m 528.43359,38.449219 c 0.84766,1.97656 2.11719,6.34766 2.53907,7.61719 1.48047,4.375 6.98437,4.375 8.11328,4.375 6.27734,0 8.95703,-4.72657 8.95703,-7.90235 0,-8.8164 -24.19531,-14.74218 -24.19531,-27.16015 0,-9.17188 6.77343,-14.60157 16.08203,-14.60157 4.30469,0 8.11328,0.77344 13.40234,2.46875 l -0.28125,10.51172 h -3.66797 c -0.63281,-3.24609 -1.90625,-6.49218 -3.10156,-7.6914 -1.27344,-1.26953 -3.73828,-2.32813 -6.28125,-2.32813 -5.21875,0 -8.10937,2.89453 -8.10937,6.35156 0,3.10157 1.6914,4.30079 10.08593,9.875 9.94532,6.63282 14.53125,9.59375 14.53125,17.77735 0,7.48047 -6.13672,15.66406 -18.62109,15.66406 -5.71484,0 -10.79297,-1.625 -13.26172,-2.47266 l -0.42187,-12.48437 z m 0,0"
     fill-opacity="1"
     fill-rule="nonzero"
     id="path16"
     style="fill:#ffffff;fill-opacity:1"
/>
  <g
     clip-path="url(#d62941ec65)"
     id="g17"
     transform="translate(-44.988281,-141.36328)"
     style="fill:#ffffff;fill-opacity:1"
>
    <path
       fill="#173a79"
       d="m 605.01562,155.47266 c 1.55079,-6.98438 2.25391,-10.9375 2.67969,-14.10938 h 1.83203 c 0.63672,1.26953 1.625,1.69141 3.95313,1.76172 3.875,0.14453 8.88672,0.28516 13.89453,0.28516 5.42969,0 9.94531,-0.14063 14.95312,-0.28516 2.39844,-0.14063 3.31641,-0.42188 4.3711,-1.76172 h 2.25781 c -0.63281,3.66797 -1.26953,8.18359 -1.97656,14.10938 h -2.53516 c -1.48047,-7.90235 -1.625,-8.67969 -7.48047,-8.67969 -2.2539,0 -3.80468,0.35547 -5.21875,0.63672 v 31.11328 c 0,9.73437 0.21485,10.4375 0.70703,11.0039 0.42188,0.4961 1.19922,0.84766 6.41797,1.26954 v 2.96484 c -5.0039,-0.14453 -9.02734,-0.28516 -11.91797,-0.28516 -2.89453,0 -6.91406,0.14063 -11.92187,0.28516 v -2.96484 c 5.21875,-0.42188 5.99219,-0.77344 6.41797,-1.26954 0.49219,-0.5664 0.70703,-1.26953 0.70703,-11.0039 v -31.1836 c -1.13281,-0.42187 -2.89453,-0.5625 -4.16406,-0.5625 -5.9961,0 -6.77344,1.6211 -10.29688,8.67579 z m 0,0"
       fill-opacity="1"
       fill-rule="nonzero"
       id="path17"
       style="fill:#ffffff;fill-opacity:1"
/>
  </g>
  <path
     fill="#173a79"
     d="m 613.87109,20.105469 c 0,-11.28906 -0.0742,-13.82813 -0.84765,-14.53516 -0.5625,-0.5625 -2.46875,-0.84375 -5.14844,-0.84375 v -2.96484 c 3.87891,0.14062 7.89844,0.28516 11.00391,0.28516 11.92187,0 19.82031,-0.14454 27.71875,-0.28516 0.42578,6.35156 0,2.96484 0.77343,11.35937 h -3.3125 C 643,9.664059 642.08594,7.265629 641.09766,6.773439 c -1.34375,-0.63672 -4.9375,-1.20313 -11.64063,-1.20313 -3.24219,0 -4.08984,0.0742 -4.51172,0.4961 -0.85156,0.84765 -1.05859,5.28906 -1.05859,9.66406 v 8.96094 c 1.55078,0.0703 3.52734,0.14062 5.57031,0.14062 2.1875,0 6.91406,-0.0703 7.61719,-0.77734 0.63672,-0.63281 0.84766,-4.9375 0.84766,-6.13672 h 2.96484 c -0.14453,2.82031 -0.28125,5.64453 -0.28125,8.39453 0,2.75 0.13672,5.57422 0.28125,8.39453 h -2.96484 c 0,-1.19922 -0.21094,-5.5039 -0.84766,-6.13672 -0.70313,-0.70312 -5.42969,-0.77734 -7.61719,-0.77734 -2.04297,0 -4.01953,0.0742 -5.57031,0.14453 v 13.19141 c 0,7.47656 0.42187,7.47656 2.82031,7.47656 5.21875,0 12.33985,-0.14063 15.16406,-1.05859 1.90625,-0.63282 4.58594,-5.64063 5.57422,-7.96875 h 3.59375 c -1.55078,4.4414 -2.46875,8.67578 -3.17187,12.83984 -3.8086,-0.14453 -13.54297,-0.28516 -28.70703,-0.28516 -3.38672,0 -7.40625,0.14063 -11.28516,0.28516 v -2.96484 c 2.67969,0 4.58594,-0.28125 5.14844,-0.84766 0.77344,-0.77344 0.84765,-3.24609 0.84765,-14.53125 z m 0,0"
     fill-opacity="1"
     fill-rule="nonzero"
     id="path18"
     style="fill:#ffffff;fill-opacity:1"
/>
  <path
     fill="#173a79"
     d="m 686.22656,30.187499 c 3.8086,0.14063 7.40625,0.28125 10.86328,0.28125 3.38672,0 6.98438,-0.14062 10.78907,-0.28125 v 3.17188 c -3.80469,0 -4.01563,0.14453 -4.01563,3.24609 v 7.19922 c 0,4.72656 -0.49609,5.07812 -3.17578,6.13672 -5.42969,2.25781 -11.63672,3.45703 -17.63281,3.45703 -13.82813,0 -28.28516,-7.76172 -28.28516,-25.82031 0,-18.13282 15.375,-26.8086 28.28516,-26.8086 6.76953,0 11.71094,1.26953 20.59375,4.44531 -0.14063,1.48047 -0.28125,3.38282 -0.28125,5.9961 0,2.46875 0.14062,4.30078 0.28125,5.78515 h -3.8086 c -1.26953,-8.96093 -7.61718,-13.26562 -15.30468,-13.26562 -5.14844,0.14062 -17.4961,2.53906 -17.4961,23.63672 0,14.32031 8.04297,22.64453 16.71875,22.64453 3.88282,0 7.55078,-1.05859 9.03125,-2.39844 0.5625,-0.49609 0.63282,-1.33984 0.63282,-5.5039 0,-2.25782 0.0703,-4.79688 -0.14063,-6.70313 -0.14062,-1.48047 -1.26953,-1.83203 -2.89062,-1.83203 h -4.16407 z m 0,0"
     fill-opacity="1"
     fill-rule="nonzero"
     id="path19"
     style="fill:#ffffff;fill-opacity:1"
/>
  <path
     fill="#173a79"
     d="m 712.73828,1.761719 c 2.1875,0.14062 4.30078,0.28516 6.48828,0.28516 2.1875,0 4.30469,-0.14454 6.48828,-0.28516 6.49219,9.38281 20.74219,26.73828 28.85157,36.12109 0.0703,-3.8789 0.13672,-7.90234 0.13672,-11.92187 0,-6.63281 -0.13672,-13.33203 -0.70313,-19.39844 -0.14062,-1.48437 -1.55078,-1.55469 -5.14844,-1.83594 v -2.96484 c 2.46875,0.14062 4.94141,0.28516 7.33594,0.28516 2.46875,0 4.9375,-0.14454 7.33203,-0.28516 v 2.96484 c -4.01562,0.14063 -4.16015,0.77344 -4.57812,10.23047 -0.63672,14.67188 -0.42578,27.65235 -0.99219,38.44922 h -3.52734 c -8.10938,-9.80859 -21.01954,-26.24609 -32.23438,-38.94531 -0.14062,2.82422 -0.14062,6.42187 -0.14062,10.4414 0,6.77344 0.21484,14.81641 0.63671,22.08204 0.14063,2.32812 2.11329,2.46875 4.9375,2.46875 v 2.96484 c -1.83593,-0.14453 -4.30468,-0.28516 -7.26562,-0.28516 -3.03125,0 -5.50391,0.14063 -7.33594,0.28516 v -2.96484 c 2.39844,-0.0703 3.87891,-0.0703 4.08985,-2.46875 0.98828,-11.00391 1.1289,-26.17579 1.1289,-38.94141 0,-3.03516 -0.91406,-3.10547 -5.5,-3.31641 z m 0,0"
     fill-opacity="1"
     fill-rule="nonzero"
     id="path20"
     style="fill:#ffffff;fill-opacity:1"
/>
  <path
     fill="#173a79"
     d="m 794.79297,50.031249 c 10.79297,0 14.46094,-8.53906 14.46094,-21.23437 0,-12.98047 -2.89453,-25.04688 -14.10938,-25.04688 -10.79297,0 -14.46094,8.53516 -14.46094,21.23438 0,12.98046 2.89454,25.04296 14.10938,25.04296 z m 0.63672,-49.24609 c 16.36328,0 26.09765,12.27734 26.09765,25.89453 0,15.44922 -11.5664,26.73828 -27.01562,26.73828 -16.36328,0 -26.09766,-12.27734 -26.09766,-25.89453 0,-15.44922 11.56641,-26.73828 27.01563,-26.73828 z m 0,0"
     fill-opacity="1"
     fill-rule="nonzero"
     id="path21"
     style="fill:#ffffff;fill-opacity:1"
/>
  <path
     fill="#173a79"
     d="m 355.41406,216.59375 c -7.7539,6.50391 -18.23828,-3.03906 -24.08593,3.57813 -8.21485,11.07812 -12.60157,21.53515 -11.65625,0.47656 10.10546,0.88281 0.86718,-9.92969 -1.08985,-11.47656 -8.44922,4.88671 -17.04297,12.76171 -26.375,11.94531 0.99219,-11.35156 11.09766,-11.90625 16.19531,-20.14063 -7.80859,-9.30859 -19.53906,8.40625 -27.34375,-0.89843 3.35547,-5.51954 16.66407,-17.34766 16.66407,-17.34766 0.3789,-4.33984 -9.13672,-3.73438 -10.63282,-2.36719 -9.35546,0.91797 -16.07421,1.05078 -4.42187,-7.63281 8.67969,0.75781 14.88281,-4.44922 20.80859,-14.04688 -2.07031,-1.62109 -14.98828,-1.13671 -16.4375,-4.3789 -8.65625,-14.71094 -1.74218,-8.83594 12.40235,-7.59766 11.07812,0.96875 20.75781,-11.97656 28.13672,-18.41406 11.83984,-10.33594 29.19531,-12.53906 44.15234,-8.43359 0,0 23.14844,9.1914 28.36719,20.03125 4.73828,9.84765 8.82422,24.03906 5.85547,34.95312 -4.23829,15.5625 0.17187,14.44922 7.44921,22.33203 1.54688,-1.30078 6.51563,-8.11328 6.89063,-12.39453 0.71094,0.0625 6.94141,-22.50781 7.19531,-25.41797 -6.33984,-16.48828 4.79297,-23.95703 1.51953,-33.10547 2.40625,-19.96875 1.91016,-38.218751 -10.39843,-38.464841 -4.59766,-0.0898 -12.25391,-1.30859 -14.84766,-5.76172 -4.51953,-7.76562 6.23047,-9.39062 11.26953,-7.98047 2.17188,0.60938 13.57031,5.15625 14.80469,1.73047 -0.79297,-4.42969 -2.67969,-16.48828 3.66015,-17.60937 4.03125,-0.71485 6.01954,1.18359 6.5625,4.83203 0.19141,1.29297 1.33204,8.51562 0.13282,9.375 5.42968,-3.89453 9.5625,-10.72266 14.61328,-10.28125 10.10156,0.88672 -9.72266,20.76953 -10.13672,33.72656 -1.86328,21.281251 -0.66797,60.312501 -7.49609,77.382811 -11.13282,28.00781 26.36718,3.86719 35.80078,-4.05078 12.41797,-10.47266 8.30078,-20.95312 14.21093,-39.18359 -3.16796,-21.95703 4.2461,-31.425781 -12.01953,-35.726571 -3.14062,-0.83203 -5.71093,-1.40234 -8.26172,-3.63671 -1.80468,-1.57422 -6.125,-5.57813 -4.39453,-8.15625 2.46485,-3.67969 11.15235,0.0977 14.3711,0.3789 6.53906,0.57422 -0.57032,-9.20703 -0.98438,-9.24609 -7.17969,-4.16406 -6.23047,-17.73438 6.47656,-9.01563 4.13672,2.83594 7.47266,6.125 11.40625,9.37891 5.41407,4.48047 11.8711,-6.80859 15.94141,-9.57422 7.78125,-5.28125 6.60156,2.85156 4.83594,8.76172 -1.94141,6.41797 -17.12891,15.75 -19.17969,22.75781 4.17969,10.429691 6.76953,57.425781 -6.58594,73.210941 -18.08593,21.23047 -42.37109,22.27734 -61.82422,37.94141 6.5625,7.82031 15.70704,10.05859 22.33204,17.76562 6.19921,-5.14453 12.41406,-10.41016 19.65625,-9.77344 2.79687,0.2461 6.16796,3.47266 9.27734,0.8086 9.87109,10.98828 12.99609,4.35156 25.17578,5.41797 19.87891,1.74218 35.21484,13.74609 37.16797,34.1875 0.70703,7.39453 0.69531,15.4375 -0.96484,22.70312 -0.76172,3.34375 -1.75391,6.63281 -2.64844,9.94141 -0.46094,1.71093 -2.42578,6.20312 -1.73828,7.94922 3.62109,9.17968 -5.9375,21.71484 -13.04688,27.67968 -15.40234,-12.78515 -48.89062,60.69922 -50.70312,67.72657 -2.05469,7.0625 -3.3125,21.44921 -11.82813,11.96093 -0.12109,1.42578 -1.73828,2.77735 -1.86328,4.20703 2.19141,1.69141 7.32813,3.15625 9.39453,0.82422 4.62891,0.40625 13.01172,1.51953 18.34375,4.48047 7.0625,2.11719 21.23047,19.46875 20.48047,30.72656 -4.27344,63.88672 -48.23047,9.2461 -58.87891,-7.25781 -1.15625,-8.99219 -1.46484,-18.16406 0.10547,-27.11719 2.22266,-12.71484 10.41797,-24.46875 14.94532,-36.50781 5.07031,-13.48828 9.0039,-27.55078 16.64453,-39.90234 -1.29688,-1.55469 -12.38672,-6.89063 -13.875,-7.02344 1.00781,-11.46875 -19.89844,21.43359 -22.84766,29.80078 -1.92969,5.64063 -10.31641,19.33594 -10.94141,26.46875 -1.42187,-0.125 -6.4375,9.88672 -7.27734,11.30469 28.95703,47.45703 3.22656,73.32422 -0.008,71.90625 -9.91797,-0.87109 -31.82031,-16.14063 -30.84766,-27.20313 0.76953,-8.77734 0.84375,-17.74218 3.41406,-26.25 1.27344,-4.21093 3.03907,-8.18359 6.0625,-11.45703 3.56641,-3.86328 7.8125,-7.17968 10.4961,-11.77343 2.32422,-3.99219 3.4414,-8.5625 5.19922,-12.80469 3.55859,-8.58203 6.55078,-17.48438 10.39843,-25.94531 4.51172,-9.92969 9.4961,-18.91797 13.00782,-28.90625 -3.57813,-9.0586 -15.42578,-5.72266 -7.37891,-23.82032 2.70313,-5.57812 5.34375,-11.09375 8.69922,-16.60937 -5.93359,-14.95313 -31.17969,-6.98438 -22.49609,-32.27344 2.11718,-7.12109 14.27343,-14.67969 18.15234,-17.21484 -10.01172,-9.44141 -24.21094,-12.1211 -35.38281,-24.66016 -13.78125,-15.63672 -32.09375,11.5625 -47.78125,10.19141 z m 0,0"
     fill-opacity="1"
     fill-rule="nonzero"
     id="path22"
/>
  <g
     clip-path="url(#9cd1e50267)"
     id="g23"
     transform="translate(-44.988281,-141.36328)"
>
    <path
       fill="#7dcb29"
       d="m 402.71875,362.1875 c -5.07422,0.68359 -10.09766,0.47266 -15.32031,0.76172 -3.31641,0.18359 -6.32032,0.80469 -8.56641,3.83594 -8.21484,11.08203 -12.60937,21.53515 -11.65625,0.47656 10.09766,0.88672 0.86719,-9.92578 -1.09375,-11.47266 -8.45312,4.89063 -17.04687,12.75781 -26.37109,11.94141 0.99218,-11.35156 11.09765,-11.90235 16.1914,-20.14453 -7.80859,-9.30469 -19.53906,8.41406 -27.34765,-0.89453 3.35937,-5.51563 16.66797,-17.34766 16.66797,-17.34766 0.3789,-4.33594 -9.13282,-3.73438 -10.62891,-2.36328 -9.35938,0.91406 -16.07813,1.04297 -4.42188,-7.63281 8.67579,0.75781 14.88282,-4.44922 20.8086,-14.05469 -2.07422,-1.6211 -14.98828,-1.12891 -16.44141,-4.3711 -8.64844,-14.71093 -1.74219,-8.83984 12.39844,-7.59765 15.63281,1.36719 31.53906,-27.14063 49.47656,-28.84766 8.28516,-0.78906 16.94531,-1.50781 25.00781,1.07031 7.15235,2.28907 14.33985,6.03907 19.92579,11.09766 12.89453,11.66406 16.51953,28.60547 12.10937,44.81641 -4.23828,15.55859 0.17188,14.44531 7.44141,22.32812 0.5625,0.60938 7.4414,-13.64453 8.03125,-15.23828 1.54687,-4.16016 2.60547,-8.55469 3.7539,-12.83984 0.53125,-1.98828 3.08594,-7.70313 2.30469,-9.73438 -6.33984,-16.48437 4.79297,-23.95703 1.52344,-33.10547 2.40625,-19.97265 1.91015,-38.21875 -10.40235,-38.46484 -5.67187,-0.10938 -23.5664,-5.52344 -12.85156,-13.66797 2.76172,-2.10156 5.50781,-1.17187 8.50781,-0.30469 1.86329,0.53516 14.51954,4.88282 15.57422,1.96094 -0.52734,-2.91797 -0.73437,-8.74609 0.23438,-11.59375 1.04297,-3.07031 1.44922,-8.07422 6.63281,-6.03906 4.83594,1.89844 2.88672,10.3125 3.48828,14.23047 5.4336,-3.89453 9.5586,-10.72266 14.60938,-10.27735 10.10547,0.88282 -9.71875,20.76953 -10.13672,33.72266 -1.86328,21.28125 -0.67188,60.3125 -7.4961,77.38281 -11.13281,28.01563 26.36719,3.86719 35.80469,-4.05078 12.41406,-10.47266 8.30078,-20.95312 14.20703,-39.18359 -3.16797,-21.95703 4.25,-31.42969 -12.01562,-35.73047 -5.05469,-0.4375 -10.5625,-3.85547 -13.4375,-11.35547 5.30859,-3.84766 9.39062,-0.55469 15.15234,-0.0508 6.53516,0.57422 -0.57422,-9.21094 -0.98437,-9.25 -7.1836,-4.16406 -6.23438,-17.73047 6.47265,-9.01953 3.95313,2.71484 7.21485,5.66015 10.90235,8.93359 4.32031,3.83594 5.41797,1.40234 8.17578,-2.26953 1.96875,-2.62109 4.79297,-4.16797 7.33594,-6.1875 7.94921,-6.30469 7.82421,1.21484 5.76953,8.09766 -1.9375,6.41796 -17.125,15.74609 -19.17578,22.7539 4.17968,10.42578 6.76562,57.42578 -6.58985,73.21094 -18.08594,21.23047 -42.36328,22.27734 -61.82422,37.94141 6.5586,7.82031 15.70703,10.05859 22.33594,17.76953 6.19531,-5.14844 12.41016,-10.41407 19.66016,-9.77735 2.79297,0.24219 6.16015,3.47266 9.26562,0.8125 9.87891,10.98438 13.44531,2.26172 25.48047,4.44532 28.98438,5.26171 31.52734,30.08203 32.16406,45.67187 2.15625,5.45703 -4.5039,17.46484 -5.08984,24.18359 3.625,9.17969 -4.14063,25.87891 -11.25,31.84766 -15.40625,-12.78906 -46.60156,62.37891 -50.14844,68.71094 -3.68359,6.57422 -5.92187,15.11719 -6.04687,16.54297 3.32422,0.91015 11.77343,1.27343 22.1875,5.67578 7.05859,2.11328 21.22656,19.46094 20.48047,30.71875 -4.27735,63.88281 -48.23047,9.24609 -58.88672,-7.25781 -2.14453,-3.32422 -0.97266,-12.57032 -0.8125,-16.4375 0.24218,-5.71485 1.11328,-11.39454 2.76562,-16.88282 2.77735,-9.21484 7.58594,-18.53125 12.2461,-26.9414 0.7539,-8.5586 13.25,-36.39453 17.5,-43.26563 -1.29688,-1.55078 -12.39063,-6.89453 -13.8711,-7.02344 0.0234,0.004 -2.51172,-1.08984 -3.19922,-1.32421 -1.11718,-0.375 -9.00781,11.88281 -12.15625,17.04687 -7.55859,12.41016 -13.27343,26.07813 -19.97656,38.96094 -1.83594,3.53125 -2.96484,6.35156 -4.98047,9.76172 28.95703,47.45312 2.46485,76.45312 -0.76562,75.02734 -9.91797,-0.86719 -31.82032,-16.14062 -30.84766,-27.19141 0.75781,-8.67578 3.73047,-34.41015 8.45313,-38.37109 1.54687,-1.30078 10.01562,-7.74609 10.14062,-9.17187 0.89453,0.0742 20.00781,-47.30079 20.26953,-50.26954 1.48438,0.12891 8.75781,-16.60546 9.71485,-19.33203 -3.57813,-9.05859 -15.42579,-5.72656 -7.375,-23.82422 2.70312,-5.57421 5.34375,-11.08984 8.69921,-16.60546 -5.9375,-14.95313 -31.18359,-6.98047 -22.5,-32.27735 2.11719,-7.11719 14.27735,-14.67578 18.15235,-17.21484 -10.01172,-9.44141 -20.71875,-14.66016 -34.09375,-25.22656 -7.82031,-6.17579 -16.42188,-4.05079 -24.01953,0.0664 -6.59766,3.57031 -13.45703,6.90235 -20.74219,8.80078 -1.50781,0.39063 -3.00391,0.67188 -4.5,0.875 z m 0,0"
       fill-opacity="1"
       fill-rule="nonzero"
       id="path23"
/>
  </g>
  <path
     fill="#fff6b1"
     d="m 339.16016,205.49609 c 3.92578,-1.64843 8.57031,0.6211 12.53515,1.09375 12.58985,1.50391 23.91407,-3.03515 32.9336,-11.41406 7.77734,-7.21875 15.97656,-16.53906 15.70703,-27.84765 -0.12891,-5.53907 -2.76563,-12.21485 -6.46485,-16.39063 -12.47656,-14.08984 -27.32031,-18.26562 -43.3164,-16.78906 -4.33594,-0.37891 -22.57422,9.58203 -23.58594,21.11328 -36.64453,10.26562 -2.71484,56.49219 12.1875,50.23437 z m 0,0"
     fill-opacity="1"
     fill-rule="nonzero"
     id="path24"
/>
  <path
     fill="#173a79"
     d="m 348.30469,152.08984 c 0.875,-10.04296 10.89453,-5.45312 13.80859,-5.19531 4.96094,11.03516 1.03125,9.4336 -13.80859,5.19531 z m 0,0"
     fill-opacity="1"
     fill-rule="nonzero"
     id="path25"
/>
  <path
     fill="#173a79"
     d="m 335.23438,171.53125 c 2.77734,-9.09766 8.89062,-2.33203 11.21484,-6.32422 8.67578,0.76172 -3.65234,23.28125 -11.21484,6.32422 z m 0,0"
     fill-opacity="1"
     fill-rule="nonzero"
     id="path26"
/>
  <path
     fill="#173a79"
     d="m 356.64844,184.91406 c 6.47265,0.57032 22.70312,-12.44531 24.08203,-28.1914 25.25391,2.21093 -26.56641,56.54297 -24.08203,28.1914 z m 0,0"
     fill-opacity="1"
     fill-rule="nonzero"
     id="path27"
/>
  <path
     fill="#d1ea77"
     d="m 500.20703,322.47656 c 2.55469,0.22266 24.60547,-4.73828 23.21875,-13.53906 2.91797,-10.76562 7.57422,-57.07031 -6.94922,-71.75391 -8.96484,-9.11328 -21.15234,-7.30859 -34.76172,-8.49609 -15.03515,-1.32031 -29.89453,11.80859 -44.42578,29.34375 -4,4.02344 21.61719,16.38672 27.72266,21.23047 4.73828,3.35547 14.25,2.6875 17.12891,10.1875 -1.86719,5.58594 -0.78907,17.24219 0.25,23.14062 -6.76954,19.23047 13.53906,9.51172 17.8164,9.88282 z m 0,0"
     fill-opacity="1"
     fill-rule="nonzero"
     id="path28"
/>
  <path
     fill="#1f9343"
     d="m 462.63281,317.96484 c 2.08203,0.1836 6.08594,3.64844 7.70313,0.91407 -0.46875,-2.85547 4.08984,-10.48047 3.6289,-13.39453 4.05079,-12.70313 -15.7539,-18.39063 -18.65234,-16.78516 -1.3125,0.66016 -8.95312,16.10156 -11.46875,20.25 1.77344,4.35156 15.9375,8.76562 18.78906,9.01172 z m 0,0"
     fill-opacity="1"
     fill-rule="nonzero"
     id="path29"
/>
  <path
     fill="#fff6b1"
     d="m 424.37891,463.12891 c 10.48828,-8.61328 3.0625,-29.92969 7.69922,-38.48828 -0.10547,-18.6875 -16.1875,-3.33204 -16.65235,11.03906 -9.11719,-0.29688 6.03125,27.35156 8.95313,27.44922 z m 0,0"
     fill-opacity="1"
     fill-rule="nonzero"
     id="path30"
/>
  <path
     fill="#fff6b1"
     d="m 484.38672,461.27344 c 5.98047,6.21094 12.52344,5.41015 16.375,-5.75391 -3.63281,-24.875 -29.65625,-40.15234 -41.46094,-20.94531 4.76953,11.91797 17.2461,26.01172 25.08594,26.69922 z m 0,0"
     fill-opacity="1"
     fill-rule="nonzero"
     id="path31"
/>
</svg>
